<svg xmlns="http://www.w3.org/2000/svg" width="32" height="30" viewBox="0 0 32 30"><path d="M31.917,11.829a1.69,1.69,0,0,0-1.464-1.144l-9.236-.82L17.564,1.5a1.716,1.716,0,0,0-3.128,0L10.784,9.864l-9.238.82A1.693,1.693,0,0,0,.084,11.829a1.639,1.639,0,0,0,.5,1.767l6.981,5.99L5.5,28.457a1.645,1.645,0,0,0,.661,1.718,1.721,1.721,0,0,0,1.868.08L16,25.6l7.964,4.658a1.725,1.725,0,0,0,1.869-.08,1.647,1.647,0,0,0,.661-1.718l-2.059-8.871L31.418,13.6A1.641,1.641,0,0,0,31.917,11.829Zm0,0" transform="translate(0 -0.492)" fill="#bfbfbf"/></svg>